<svg id="visual" viewBox="0 0 1920 540" width="1920" height="540" xmlns="http://www.w3.org/2000/svg" xmlns:xlink="http://www.w3.org/1999/xlink" version="1.1"><path d="M0 33L26.7 37.5C53.3 42 106.7 51 160 50.2C213.3 49.3 266.7 38.7 320 36C373.3 33.3 426.7 38.7 480 43.2C533.3 47.7 586.7 51.3 640 50.5C693.3 49.7 746.7 44.3 800 41.7C853.3 39 906.7 39 960 36.3C1013.3 33.7 1066.7 28.3 1120 30.2C1173.3 32 1226.7 41 1280 41.8C1333.3 42.7 1386.7 35.3 1440 30.8C1493.3 26.3 1546.7 24.7 1600 23.8C1653.3 23 1706.7 23 1760 24.7C1813.3 26.3 1866.7 29.7 1893.3 31.3L1920 33L1920 0L1893.3 0C1866.7 0 1813.3 0 1760 0C1706.7 0 1653.3 0 1600 0C1546.7 0 1493.3 0 1440 0C1386.7 0 1333.3 0 1280 0C1226.7 0 1173.3 0 1120 0C1066.7 0 1013.3 0 960 0C906.7 0 853.3 0 800 0C746.7 0 693.3 0 640 0C586.7 0 533.3 0 480 0C426.7 0 373.3 0 320 0C266.7 0 213.3 0 160 0C106.7 0 53.3 0 26.7 0L0 0Z" fill="#1F2937"></path><path d="M0 201L26.7 195.5C53.3 190 106.7 179 160 162.8C213.3 146.7 266.7 125.3 320 118.2C373.3 111 426.7 118 480 119.7C533.3 121.3 586.7 117.7 640 129.3C693.3 141 746.7 168 800 182.5C853.3 197 906.7 199 960 186.5C1013.3 174 1066.7 147 1120 144.3C1173.3 141.7 1226.7 163.3 1280 178.7C1333.3 194 1386.7 203 1440 203.8C1493.3 204.7 1546.7 197.3 1600 191.8C1653.3 186.3 1706.7 182.7 1760 182.7C1813.3 182.7 1866.7 186.3 1893.3 188.2L1920 190L1920 31L1893.3 29.3C1866.7 27.7 1813.3 24.3 1760 22.7C1706.7 21 1653.3 21 1600 21.8C1546.7 22.7 1493.3 24.3 1440 28.8C1386.7 33.3 1333.3 40.7 1280 39.8C1226.7 39 1173.3 30 1120 28.2C1066.7 26.3 1013.3 31.7 960 34.3C906.7 37 853.3 37 800 39.7C746.7 42.3 693.3 47.7 640 48.5C586.7 49.3 533.3 45.7 480 41.2C426.7 36.7 373.3 31.3 320 34C266.7 36.7 213.3 47.3 160 48.2C106.7 49 53.3 40 26.7 35.5L0 31Z" fill="#255391"></path><path d="M0 325L26.7 325C53.3 325 106.7 325 160 314.2C213.3 303.3 266.7 281.7 320 279C373.3 276.3 426.7 292.7 480 296.3C533.3 300 586.7 291 640 289.2C693.3 287.3 746.7 292.7 800 298C853.3 303.3 906.7 308.7 960 316.8C1013.3 325 1066.7 336 1120 334.2C1173.3 332.3 1226.7 317.7 1280 312.2C1333.3 306.7 1386.7 310.3 1440 305.8C1493.3 301.3 1546.7 288.7 1600 279.7C1653.3 270.7 1706.7 265.3 1760 265.3C1813.3 265.3 1866.7 270.7 1893.3 273.3L1920 276L1920 188L1893.3 186.2C1866.7 184.3 1813.3 180.7 1760 180.7C1706.7 180.7 1653.3 184.3 1600 189.8C1546.7 195.3 1493.3 202.7 1440 201.8C1386.7 201 1333.3 192 1280 176.7C1226.7 161.3 1173.3 139.7 1120 142.3C1066.7 145 1013.3 172 960 184.5C906.7 197 853.3 195 800 180.5C746.7 166 693.3 139 640 127.3C586.7 115.7 533.3 119.3 480 117.7C426.7 116 373.3 109 320 116.2C266.7 123.3 213.3 144.7 160 160.8C106.7 177 53.3 188 26.7 193.5L0 199Z" fill="#1360d2"></path><path d="M0 417L26.7 408.8C53.3 400.7 106.7 384.3 160 379.8C213.3 375.3 266.7 382.7 320 382.7C373.3 382.7 426.7 375.3 480 377.2C533.3 379 586.7 390 640 397.2C693.3 404.3 746.7 407.7 800 403.2C853.3 398.7 906.7 386.3 960 385.5C1013.3 384.7 1066.7 395.3 1120 404.3C1173.3 413.3 1226.7 420.7 1280 415.3C1333.3 410 1386.7 392 1440 378.5C1493.3 365 1546.7 356 1600 351.5C1653.3 347 1706.7 347 1760 357.7C1813.3 368.3 1866.7 389.7 1893.3 400.3L1920 411L1920 274L1893.3 271.3C1866.7 268.7 1813.3 263.3 1760 263.3C1706.7 263.3 1653.3 268.7 1600 277.7C1546.7 286.7 1493.3 299.3 1440 303.8C1386.7 308.3 1333.3 304.7 1280 310.2C1226.7 315.7 1173.3 330.3 1120 332.2C1066.7 334 1013.3 323 960 314.8C906.7 306.7 853.3 301.3 800 296C746.7 290.7 693.3 285.3 640 287.2C586.7 289 533.3 298 480 294.3C426.7 290.7 373.3 274.3 320 277C266.7 279.7 213.3 301.3 160 312.2C106.7 323 53.3 323 26.7 323L0 323Z" fill="#2563eb"></path><path d="M0 471L26.7 463.8C53.3 456.7 106.7 442.3 160 434.2C213.3 426 266.7 424 320 424C373.3 424 426.7 426 480 430.5C533.3 435 586.7 442 640 447.3C693.3 452.7 746.7 456.3 800 451.8C853.3 447.3 906.7 434.7 960 432C1013.3 429.3 1066.7 436.7 1120 442.2C1173.3 447.7 1226.7 451.3 1280 445.8C1333.3 440.3 1386.7 425.7 1440 421.2C1493.3 416.7 1546.7 422.3 1600 419.7C1653.3 417 1706.7 406 1760 410.5C1813.3 415 1866.7 435 1893.3 445L1920 455L1920 409L1893.3 398.3C1866.7 387.7 1813.3 366.3 1760 355.7C1706.7 345 1653.3 345 1600 349.5C1546.7 354 1493.3 363 1440 376.5C1386.7 390 1333.3 408 1280 413.3C1226.7 418.7 1173.3 411.3 1120 402.3C1066.7 393.3 1013.3 382.7 960 383.5C906.7 384.3 853.3 396.7 800 401.2C746.7 405.7 693.3 402.3 640 395.2C586.7 388 533.3 377 480 375.2C426.7 373.3 373.3 380.7 320 380.7C266.7 380.7 213.3 373.3 160 377.8C106.7 382.3 53.3 398.7 26.7 406.8L0 415Z" fill="#1360d2"></path><path d="M0 514L26.7 513.2C53.3 512.3 106.7 510.7 160 511.5C213.3 512.3 266.7 515.7 320 514.7C373.3 513.7 426.7 508.3 480 508.3C533.3 508.3 586.7 513.7 640 516.3C693.3 519 746.7 519 800 518.2C853.3 517.3 906.7 515.7 960 509.5C1013.3 503.3 1066.7 492.7 1120 489C1173.3 485.3 1226.7 488.7 1280 494.8C1333.3 501 1386.7 510 1440 514.5C1493.3 519 1546.7 519 1600 513.7C1653.3 508.3 1706.7 497.7 1760 493.2C1813.3 488.7 1866.7 490.3 1893.3 491.2L1920 492L1920 453L1893.3 443C1866.7 433 1813.3 413 1760 408.5C1706.7 404 1653.3 415 1600 417.7C1546.7 420.3 1493.3 414.7 1440 419.2C1386.7 423.7 1333.3 438.3 1280 443.8C1226.7 449.3 1173.3 445.7 1120 440.2C1066.7 434.7 1013.3 427.3 960 430C906.7 432.7 853.3 445.3 800 449.8C746.7 454.3 693.3 450.7 640 445.3C586.7 440 533.3 433 480 428.5C426.7 424 373.3 422 320 422C266.7 422 213.3 424 160 432.2C106.7 440.3 53.3 454.7 26.7 461.8L0 469Z" fill="#255391"></path><path d="M0 541L26.7 541C53.3 541 106.7 541 160 541C213.3 541 266.7 541 320 541C373.3 541 426.7 541 480 541C533.3 541 586.7 541 640 541C693.3 541 746.7 541 800 541C853.3 541 906.7 541 960 541C1013.3 541 1066.7 541 1120 541C1173.3 541 1226.7 541 1280 541C1333.3 541 1386.7 541 1440 541C1493.3 541 1546.7 541 1600 541C1653.3 541 1706.7 541 1760 541C1813.3 541 1866.7 541 1893.3 541L1920 541L1920 490L1893.3 489.2C1866.7 488.3 1813.3 486.7 1760 491.2C1706.7 495.7 1653.3 506.3 1600 511.7C1546.7 517 1493.3 517 1440 512.5C1386.7 508 1333.3 499 1280 492.8C1226.7 486.7 1173.3 483.3 1120 487C1066.7 490.7 1013.3 501.3 960 507.5C906.7 513.7 853.3 515.3 800 516.2C746.7 517 693.3 517 640 514.3C586.7 511.7 533.3 506.3 480 506.3C426.7 506.3 373.3 511.7 320 512.7C266.7 513.7 213.3 510.3 160 509.5C106.7 508.7 53.3 510.3 26.7 511.2L0 512Z" fill="#374151"></path></svg>