<svg id="visual" viewBox="0 0 1920 810" width="1920" height="810" xmlns="http://www.w3.org/2000/svg" xmlns:xlink="http://www.w3.org/1999/xlink" version="1.1"><path d="M0 212L29.2 209.2C58.3 206.3 116.7 200.7 174.8 188.5C233 176.3 291 157.7 349.2 164.5C407.3 171.3 465.7 203.7 523.8 205C582 206.3 640 176.7 698.2 172.7C756.3 168.7 814.7 190.3 872.8 213.3C931 236.3 989 260.7 1047.2 257.8C1105.3 255 1163.7 225 1221.8 216.8C1280 208.7 1338 222.3 1396.2 222.3C1454.3 222.3 1512.7 208.7 1570.8 192.5C1629 176.3 1687 157.7 1745.2 165.8C1803.3 174 1861.7 209 1890.8 226.5L1920 244L1920 0L1890.8 0C1861.7 0 1803.3 0 1745.2 0C1687 0 1629 0 1570.8 0C1512.7 0 1454.3 0 1396.2 0C1338 0 1280 0 1221.8 0C1163.7 0 1105.3 0 1047.2 0C989 0 931 0 872.8 0C814.7 0 756.3 0 698.2 0C640 0 582 0 523.8 0C465.7 0 407.3 0 349.2 0C291 0 233 0 174.8 0C116.7 0 58.3 0 29.2 0L0 0Z" fill="#374151"></path><path d="M0 252L29.2 254.7C58.3 257.3 116.7 262.7 174.8 253.2C233 243.7 291 219.3 349.2 222.2C407.3 225 465.7 255 523.8 260.5C582 266 640 247 698.2 242.8C756.3 238.7 814.7 249.3 872.8 270.8C931 292.3 989 324.7 1047.2 328.8C1105.3 333 1163.7 309 1221.8 306.3C1280 303.7 1338 322.3 1396.2 319.5C1454.3 316.7 1512.7 292.3 1570.8 266.7C1629 241 1687 214 1745.2 218.2C1803.3 222.3 1861.7 257.7 1890.8 275.3L1920 293L1920 242L1890.8 224.5C1861.7 207 1803.3 172 1745.2 163.8C1687 155.7 1629 174.3 1570.8 190.5C1512.7 206.7 1454.3 220.3 1396.2 220.3C1338 220.3 1280 206.7 1221.8 214.8C1163.7 223 1105.3 253 1047.2 255.8C989 258.7 931 234.3 872.8 211.3C814.7 188.3 756.3 166.7 698.2 170.7C640 174.7 582 204.3 523.8 203C465.7 201.7 407.3 169.3 349.2 162.5C291 155.7 233 174.3 174.8 186.5C116.7 198.7 58.3 204.3 29.2 207.2L0 210Z" fill="#255391"></path><path d="M0 398L29.2 389.8C58.3 381.7 116.7 365.3 174.8 355.8C233 346.3 291 343.7 349.2 349.2C407.3 354.7 465.7 368.3 523.8 377.8C582 387.3 640 392.7 698.2 402C756.3 411.3 814.7 424.7 872.8 449C931 473.3 989 508.7 1047.2 503.3C1105.3 498 1163.7 452 1221.8 427.7C1280 403.3 1338 400.7 1396.2 404.7C1454.3 408.7 1512.7 419.3 1570.8 414C1629 408.7 1687 387.3 1745.2 384.7C1803.3 382 1861.7 398 1890.8 406L1920 414L1920 291L1890.8 273.3C1861.7 255.7 1803.3 220.3 1745.2 216.2C1687 212 1629 239 1570.8 264.7C1512.7 290.3 1454.3 314.7 1396.2 317.5C1338 320.3 1280 301.7 1221.8 304.3C1163.7 307 1105.3 331 1047.2 326.8C989 322.7 931 290.3 872.8 268.8C814.7 247.3 756.3 236.7 698.2 240.8C640 245 582 264 523.8 258.5C465.7 253 407.3 223 349.2 220.2C291 217.3 233 241.7 174.8 251.2C116.7 260.7 58.3 255.3 29.2 252.7L0 250Z" fill="#1360d2"></path><path d="M0 544L29.2 522.3C58.3 500.7 116.7 457.3 174.8 442.5C233 427.7 291 441.3 349.2 450.8C407.3 460.3 465.7 465.7 523.8 475C582 484.3 640 497.7 698.2 504.3C756.3 511 814.7 511 872.8 530C931 549 989 587 1047.2 583C1105.3 579 1163.7 533 1221.8 512.7C1280 492.3 1338 497.7 1396.2 509.8C1454.3 522 1512.7 541 1570.8 530.2C1629 519.3 1687 478.7 1745.2 473.3C1803.3 468 1861.7 498 1890.8 513L1920 528L1920 412L1890.8 404C1861.7 396 1803.3 380 1745.2 382.7C1687 385.3 1629 406.7 1570.8 412C1512.7 417.3 1454.3 406.7 1396.2 402.7C1338 398.7 1280 401.3 1221.8 425.7C1163.7 450 1105.3 496 1047.2 501.3C989 506.7 931 471.3 872.8 447C814.7 422.7 756.3 409.3 698.2 400C640 390.7 582 385.3 523.8 375.8C465.7 366.3 407.3 352.7 349.2 347.2C291 341.7 233 344.3 174.8 353.8C116.7 363.3 58.3 379.7 29.2 387.8L0 396Z" fill="#2563eb"></path><path d="M0 609L29.2 587.3C58.3 565.7 116.7 522.3 174.8 510.2C233 498 291 517 349.2 522.3C407.3 527.7 465.7 519.3 523.8 524.7C582 530 640 549 698.2 554.5C756.3 560 814.7 552 872.8 566.8C931 581.7 989 619.3 1047.2 624.7C1105.3 630 1163.7 603 1221.8 592.2C1280 581.3 1338 586.7 1396.2 593.5C1454.3 600.3 1512.7 608.7 1570.8 588.5C1629 568.3 1687 519.7 1745.2 512.8C1803.3 506 1861.7 541 1890.8 558.5L1920 576L1920 526L1890.8 511C1861.7 496 1803.3 466 1745.2 471.3C1687 476.7 1629 517.3 1570.8 528.2C1512.7 539 1454.3 520 1396.2 507.8C1338 495.7 1280 490.3 1221.8 510.7C1163.7 531 1105.3 577 1047.2 581C989 585 931 547 872.8 528C814.7 509 756.3 509 698.2 502.3C640 495.7 582 482.3 523.8 473C465.7 463.7 407.3 458.3 349.2 448.8C291 439.3 233 425.7 174.8 440.5C116.7 455.3 58.3 498.7 29.2 520.3L0 542Z" fill="#1360d2"></path><path d="M0 641L29.2 626.2C58.3 611.3 116.7 581.7 174.8 570.8C233 560 291 568 349.2 570.7C407.3 573.3 465.7 570.7 523.8 582.8C582 595 640 622 698.2 634.2C756.3 646.3 814.7 643.7 872.8 651.8C931 660 989 679 1047.2 681.7C1105.3 684.3 1163.7 670.7 1221.8 658.5C1280 646.3 1338 635.7 1396.2 638.3C1454.3 641 1512.7 657 1570.8 639.3C1629 621.7 1687 570.3 1745.2 565C1803.3 559.7 1861.7 600.3 1890.8 620.7L1920 641L1920 574L1890.8 556.5C1861.7 539 1803.3 504 1745.2 510.8C1687 517.7 1629 566.3 1570.8 586.5C1512.7 606.7 1454.3 598.3 1396.2 591.5C1338 584.7 1280 579.3 1221.8 590.2C1163.7 601 1105.3 628 1047.2 622.7C989 617.3 931 579.7 872.8 564.8C814.7 550 756.3 558 698.2 552.5C640 547 582 528 523.8 522.7C465.7 517.3 407.3 525.7 349.2 520.3C291 515 233 496 174.8 508.2C116.7 520.3 58.3 563.7 29.2 585.3L0 607Z" fill="#255391"></path><path d="M0 811L29.2 811C58.3 811 116.7 811 174.8 811C233 811 291 811 349.2 811C407.3 811 465.7 811 523.8 811C582 811 640 811 698.2 811C756.3 811 814.7 811 872.8 811C931 811 989 811 1047.2 811C1105.3 811 1163.7 811 1221.8 811C1280 811 1338 811 1396.2 811C1454.3 811 1512.7 811 1570.8 811C1629 811 1687 811 1745.2 811C1803.3 811 1861.7 811 1890.8 811L1920 811L1920 639L1890.8 618.7C1861.7 598.3 1803.3 557.7 1745.2 563C1687 568.3 1629 619.7 1570.8 637.3C1512.7 655 1454.3 639 1396.2 636.3C1338 633.7 1280 644.3 1221.8 656.5C1163.7 668.7 1105.3 682.3 1047.2 679.7C989 677 931 658 872.8 649.8C814.7 641.7 756.3 644.3 698.2 632.2C640 620 582 593 523.8 580.8C465.7 568.7 407.3 571.3 349.2 568.7C291 566 233 558 174.8 568.8C116.7 579.7 58.3 609.3 29.2 624.2L0 639Z" fill="#374151"></path></svg>